<?xml version="1.0" standalone="no"?>
<!DOCTYPE svg PUBLIC "-//W3C//DTD SVG 20010904//EN"
 "http://www.w3.org/TR/2001/REC-SVG-20010904/DTD/svg10.dtd">
<svg version="1.0" xmlns="http://www.w3.org/2000/svg"
 width="370.000000pt" height="370.000000pt" viewBox="0 0 370.000000 370.000000"
 preserveAspectRatio="xMidYMid meet">
<metadata>
Created by potrace 1.14, written by Peter Selinger 2001-2017
</metadata>
<g transform="translate(0.000000,370.000000) scale(0.100000,-0.100000)"
fill="#000000" stroke="none">
<path d="M1765 3114 c-211 -27 -324 -60 -475 -140 -355 -188 -603 -533 -665
-922 -12 -77 -15 -374 -4 -408 2 -6 -49 -67 -113 -136 -65 -69 -128 -138 -140
-154 -13 -16 -31 -38 -41 -49 -36 -39 -117 -164 -151 -232 -111 -220 -65 -385
122 -439 143 -42 391 -1 734 122 l126 45 99 -50 c131 -65 212 -98 303 -121
118 -30 127 -31 280 -35 233 -6 398 30 597 129 251 126 443 318 567 566 105
210 135 352 131 615 l-3 180 96 100 c193 199 282 318 352 469 59 124 68 204
34 293 -36 97 -127 138 -309 137 -152 0 -262 -23 -525 -111 l-195 -65 -105 55
c-177 93 -334 139 -515 153 -50 3 -92 7 -95 9 -3 1 -50 -4 -105 -11z m1691
-217 c57 -66 4 -192 -172 -412 -72 -90 -200 -223 -207 -214 -2 2 -14 29 -28
59 -69 156 -140 267 -250 392 -30 34 -54 64 -54 66 0 13 273 100 395 126 37 8
114 13 178 12 111 -1 114 -2 138 -29z m-1368 -267 c283 -80 499 -299 578 -585
8 -27 16 -70 19 -95 l5 -45 -172 -127 c-95 -70 -174 -125 -176 -124 -2 2 10
36 27 76 37 87 39 113 6 145 -48 49 -100 26 -141 -63 -60 -130 -146 -345 -151
-378 -12 -71 11 -78 282 -90 77 -3 142 -8 144 -10 8 -7 -90 -102 -154 -151
-209 -160 -534 -201 -785 -100 -264 107 -474 379 -506 655 l-6 59 83 64 c137
106 259 192 264 187 3 -2 -9 -36 -25 -74 -35 -82 -37 -103 -9 -138 23 -29 73
-36 100 -13 13 10 42 68 115 232 63 142 86 211 80 244 -3 19 -9 38 -13 42 -9
8 -90 15 -268 25 -66 4 -122 9 -125 11 -8 8 119 118 176 153 77 47 199 97 279
114 95 21 274 14 373 -14z m-790 -428 c15 -10 -12 -36 -119 -116 -75 -56 -106
-69 -96 -42 3 8 11 33 17 55 5 21 17 55 25 75 l15 36 73 0 c39 0 78 -4 85 -8z
m1352 -609 l-28 -88 -104 -3 c-73 -2 -100 0 -92 8 29 29 239 178 245 174 4 -2
-6 -43 -21 -91z m-1935 -240 c64 -144 121 -232 237 -364 32 -37 58 -69 58 -72
0 -9 -237 -85 -350 -112 -58 -14 -146 -28 -195 -32 -79 -5 -97 -3 -138 15 -52
23 -64 47 -53 110 8 55 68 166 139 262 61 82 242 280 256 280 4 0 24 -39 46
-87z"/>
</g>
</svg>
